<svg width="66" height="21" viewBox="0 0 66 21" fill="none" xmlns="http://www.w3.org/2000/svg">
<path d="M0.738281 8.98633H1.92773C1.92773 7.87891 2.84375 7.04492 4.06055 7.04492C5.18848 7.04492 5.91309 7.81738 5.91309 8.78809C5.91309 9.6084 5.60547 10.1416 4.27246 11.5293L0.799805 15.1523V16H7.30762V14.9062H2.48828V14.8789L4.83301 12.4727C6.64453 10.6133 7.14355 9.7998 7.14355 8.71289C7.14355 7.21582 5.88574 5.97168 4.06055 5.97168C2.16016 5.97168 0.738281 7.25684 0.738281 8.98633ZM12.1201 16.1641C14.1777 16.1641 15.6338 14.7764 15.6338 12.7939C15.6338 10.9004 14.2666 9.52637 12.373 9.52637C11.416 9.52637 10.5957 9.88184 10.1309 10.5449H10.1035L10.4385 7.22949H15.0732V6.13574H9.42676L8.9209 11.7617H10.0078C10.4658 10.9688 11.2178 10.5859 12.1543 10.5859C13.4668 10.5859 14.4033 11.5225 14.4033 12.8281C14.4033 14.1543 13.4736 15.084 12.1338 15.084C10.9512 15.084 10.0557 14.3594 9.94629 13.3066H8.73633C8.83887 14.9883 10.2334 16.1641 12.1201 16.1641ZM20.3711 16.1641C22.668 16.1641 23.9941 14.1748 23.9941 11.0576C23.9941 7.96094 22.6611 5.97168 20.3711 5.97168C18.0811 5.97168 16.7344 7.97461 16.7344 11.0645C16.7344 14.1816 18.0674 16.1641 20.3711 16.1641ZM20.3711 15.0908C18.8262 15.0908 17.9717 13.5186 17.9717 11.0576C17.9717 8.65137 18.8467 7.05176 20.3711 7.05176C21.8955 7.05176 22.7568 8.6377 22.7568 11.0645C22.7568 13.5254 21.9092 15.0908 20.3711 15.0908ZM31.7324 16.1641C34.0293 16.1641 35.3555 14.1748 35.3555 11.0576C35.3555 7.96094 34.0225 5.97168 31.7324 5.97168C29.4424 5.97168 28.0957 7.97461 28.0957 11.0645C28.0957 14.1816 29.4287 16.1641 31.7324 16.1641ZM31.7324 15.0908C30.1875 15.0908 29.333 13.5186 29.333 11.0576C29.333 8.65137 30.208 7.05176 31.7324 7.05176C33.2568 7.05176 34.1182 8.6377 34.1182 11.0645C34.1182 13.5254 33.2705 15.0908 31.7324 15.0908ZM40.2227 16.1641C42.5195 16.1641 43.8457 14.1748 43.8457 11.0576C43.8457 7.96094 42.5127 5.97168 40.2227 5.97168C37.9326 5.97168 36.5859 7.97461 36.5859 11.0645C36.5859 14.1816 37.9189 16.1641 40.2227 16.1641ZM40.2227 15.0908C38.6777 15.0908 37.8232 13.5186 37.8232 11.0576C37.8232 8.65137 38.6982 7.05176 40.2227 7.05176C41.7471 7.05176 42.6084 8.6377 42.6084 11.0645C42.6084 13.5254 41.7607 15.0908 40.2227 15.0908ZM48.7129 16.1641C51.0098 16.1641 52.3359 14.1748 52.3359 11.0576C52.3359 7.96094 51.0029 5.97168 48.7129 5.97168C46.4229 5.97168 45.0762 7.97461 45.0762 11.0645C45.0762 14.1816 46.4092 16.1641 48.7129 16.1641ZM48.7129 15.0908C47.168 15.0908 46.3135 13.5186 46.3135 11.0576C46.3135 8.65137 47.1885 7.05176 48.7129 7.05176C50.2373 7.05176 51.0986 8.6377 51.0986 11.0645C51.0986 13.5254 50.251 15.0908 48.7129 15.0908ZM59.6367 16.9912H60.457V15.8086C62.0703 15.6855 63.4102 14.79 63.4102 13.1426C63.4102 11.707 62.4258 10.9824 60.6689 10.5586L60.457 10.5107V7.40039C61.3799 7.5166 62.0361 8.05664 62.125 8.97949H63.3145C63.2666 7.46875 62.0361 6.4707 60.457 6.32715V5.14453H59.6367V6.33398C58.0166 6.47754 56.8613 7.44824 56.8613 8.91797C56.8613 10.2646 57.7773 11.0234 59.4795 11.4336L59.6367 11.4746V14.7354C58.4541 14.6055 57.9277 13.9561 57.8047 13.1016H56.6152C56.6631 14.6943 58.0098 15.6582 59.6367 15.8018V16.9912ZM58.0508 8.83594C58.0508 8.17285 58.5977 7.54395 59.6367 7.40723V10.3125C58.4609 10.0254 58.0508 9.50586 58.0508 8.83594ZM60.498 11.6797C61.8516 12.0078 62.2207 12.4863 62.2207 13.2383C62.2207 14.0244 61.7285 14.6465 60.457 14.7422V11.6729L60.498 11.6797Z" fill="#E5E5E5"/>
<line x1="0.147043" y1="0.52211" x2="65.147" y2="20.5221" stroke="#CB0E0E"/>
</svg>
